<svg xmlns="http://www.w3.org/2000/svg" width="201.415" height="152.051" viewBox="0 0 201.415 152.051">
  <g id="Group_1" data-name="Group 1" transform="translate(-1068.949 -88.949)">
    <path id="Path_1" data-name="Path 1" d="M1159,241c-.279,0-.721-.721-1-1-1.673-.558-2.721-1.327-3-3l-6-72-9,5c-1.394.837-3.606-.163-5-1l-64-45c-1.394-1.116-2.279-2.326-2-4a3.989,3.989,0,0,1,4-3l192-28c1.674-.279,4.163.606,5,2s.116,3.605-1,5L1163,239C1162.442,240.116,1160.395,241,1159,241Zm-2-82,5,66,89-118Zm-73-36,52,37,108-59Z" fill="#fcee21"/>
  </g>
</svg>
